<!DOCTYPE svg PUBLIC "-//W3C//DTD SVG 1.1//EN" "http://www.w3.org/Graphics/SVG/1.1/DTD/svg11.dtd">
<svg width="202.88mm" height="55.16mm" viewBox="0 0 202.88 55.16" xmlns="http://www.w3.org/2000/svg" version="1.1" xmlns:xlink="http://www.w3.org/1999/xlink">
<title>Airfoil plot (naca4418-il) NACA 4418 by AirfoilTools.com</title>
<g transform="translate(5.742,30.16464)"><g transform="scale(1,-1)"><line fill="none" stroke="green" stroke-width="0.1" x1="10" x2="10" y1="-16.38" y2="30.16"></line><line fill="none" stroke="green" stroke-width="0.1" x1="20" x2="20" y1="-16.38" y2="30.16"></line><line fill="none" stroke="green" stroke-width="0.1" x1="30" x2="30" y1="-16.38" y2="30.16"></line><line fill="none" stroke="green" stroke-width="0.1" x1="40" x2="40" y1="-16.38" y2="30.16"></line><line fill="none" stroke="green" stroke-width="0.1" x1="50" x2="50" y1="-16.38" y2="30.16"></line><line fill="none" stroke="green" stroke-width="0.1" x1="60" x2="60" y1="-16.38" y2="30.16"></line><line fill="none" stroke="green" stroke-width="0.1" x1="70" x2="70" y1="-16.38" y2="30.16"></line><line fill="none" stroke="green" stroke-width="0.1" x1="80" x2="80" y1="-16.38" y2="30.16"></line><line fill="none" stroke="green" stroke-width="0.1" x1="90" x2="90" y1="-16.38" y2="30.16"></line><line fill="none" stroke="green" stroke-width="0.1" x1="100" x2="100" y1="-16.38" y2="30.16"></line><line fill="none" stroke="green" stroke-width="0.1" x1="110" x2="110" y1="-16.38" y2="30.16"></line><line fill="none" stroke="green" stroke-width="0.1" x1="120" x2="120" y1="-16.38" y2="30.16"></line><line fill="none" stroke="green" stroke-width="0.1" x1="130" x2="130" y1="-16.38" y2="30.16"></line><line fill="none" stroke="green" stroke-width="0.1" x1="140" x2="140" y1="-16.38" y2="30.16"></line><line fill="none" stroke="green" stroke-width="0.1" x1="150" x2="150" y1="-16.38" y2="30.16"></line><line fill="none" stroke="green" stroke-width="0.1" x1="160" x2="160" y1="-16.38" y2="30.16"></line><line fill="none" stroke="green" stroke-width="0.1" x1="170" x2="170" y1="-16.38" y2="30.16"></line><line fill="none" stroke="green" stroke-width="0.1" x1="180" x2="180" y1="-16.38" y2="30.16"></line><line fill="none" stroke="green" stroke-width="0.1" x1="190" x2="190" y1="-16.38" y2="30.16"></line><line fill="none" stroke="green" stroke-width="0.1" x1="-5.74" x2="197.14" y1="10" y2="10"></line><line fill="none" stroke="green" stroke-width="0.1" x1="-5.74" x2="197.14" y1="20" y2="20"></line><line fill="none" stroke="green" stroke-width="0.1" x1="-5.74" x2="197.14" y1="30" y2="30"></line><line fill="none" stroke="green" stroke-width="0.1" x1="-5.74" x2="197.14" y1="-10" y2="-10"></line>
<path fill="none" stroke="red" stroke-width="0.19" d="M 191.4 0.36 L 181.83 3.62 L 172.26 6.62 L 153.12 11.91 L 133.98 16.36 L 114.84 19.98 L 95.7 22.68 L 76.56 24.31 L 57.42 24.42 L 47.85 23.73 L 38.28 22.43 L 28.71 20.4 L 19.14 17.44 L 14.36 15.43 L 9.57 12.92 L 4.79 9.57 L 2.39 7.2 L 0 0 L 2.39 -4.04 L 4.79 -5.72 L 9.57 -7.77 L 14.36 -8.94 L 19.14 -9.68 L 28.71 -10.51 L 38.28 -10.64 L 47.85 -10.51 L 57.42 -10.07 L 76.56 -9 L 95.7 -7.69 L 114.84 -6.2 L 133.98 -4.69 L 153.12 -3.2 L 172.26 -1.78 L 181.83 -1.05 L 191.4 -0.36 "></path>
<path fill="none" stroke="blue" stroke-width="0.19" d="M 0 0 L 191.4 0 "></path>
<line fill="none" stroke="black" stroke-width="0.19" x1="-5.74" x2="197.14" y1="0" y2="0"></line>
<line fill="none" stroke="black" stroke-width="0.19" x1="0" x2="0" y1="-16.38" y2="30.16"></line>
</g>
</g>
<g transform="translate(0,46.54848)"><g transform="scale(1.914,1.914)"><text fill="rgb(48,48,144)" font-size="1.8" style="font-family:Arial,Helvetica,sans-serif;" x="1" y="2">Name = NACA 4418</text><text fill="rgb(48,48,144)" font-size="1.8" style="font-family:Arial,Helvetica,sans-serif;" x="1" y="4">Chord = 191.4mm  Radius = 0mm  Thickness = 100%  Origin = 0%  Pitch = 0&#176; </text></g></g></svg>